# File created by Blade
# Date/Time:  Wed Jan 21 18:02:19 2015
# Frame Rate: 120.000 fps
#------------------------------------------------------
:FULLY-SPECIFIED
:DEGREES
214
root 19.862534 35.533420 -24.700810 -211.087460 -9.861926 -171.461159
Spine 25.073296 -2.903608 -2.078175
Head 2.400335 -9.465597 16.352394
LeftShoulder -1.252892 -23.327184 0.554348
LeftArm -13.427881 10.552752 -65.754776
LeftForeArm -7.928621 0.000000 -2.724128
LeftHand -2.071114 -0.000000 -2.530339
LeftHandThumb1 -26.253704 0.000000 33.147579
RightShoulder -10.956120 -15.160382 16.230690
RightArm 4.652729 -6.623275 67.751001
RightForeArm -16.515978 -0.000000 19.746975
RightHand -4.846272 -0.000000 2.726954
RightHandThumb1 -24.326973 -0.000000 -32.862282
LeftUpLeg 15.302123 6.362636 4.359460
LeftLeg 24.896534 -0.000000 -0.000000
LeftFoot -24.061436 13.744995 -7.936109
LeftToeBase 24.897131 -0.000000 -0.000000
RightUpLeg -30.364551 -1.298110 7.297534
RightLeg 43.769744 -0.000000 -0.000000
RightFoot -30.371123 -32.743816 15.370981
RightToeBase 12.715139 -0.000000 -0.000000
215
root 19.888502 35.602780 -24.706604 -212.825843 -10.293418 -170.906425
Spine 27.882420 -3.970018 -2.392755
Head 1.481185 -8.801435 16.664036
LeftShoulder -0.468255 -23.679225 0.528420
LeftArm -12.628222 11.817703 -65.545181
LeftForeArm -8.493388 -0.000000 -2.885081
LeftHand -2.039473 -0.000000 -2.698222
LeftHandThumb1 -26.253704 0.000000 33.147579
RightShoulder -10.662070 -15.259926 16.327931
RightArm 5.352152 -7.445199 67.722860
RightForeArm -16.562259 -0.000000 19.533662
RightHand -4.719649 0.000000 3.336355
RightHandThumb1 -24.326973 -0.000000 -32.862282
LeftUpLeg 17.027665 5.867526 4.944052
LeftLeg 24.516117 -0.000000 -0.000000
LeftFoot -23.985433 13.583002 -8.274051
LeftToeBase 25.504517 -0.000000 -0.000000
RightUpLeg -32.329565 -1.445159 6.587860
RightLeg 41.935901 -0.000000 -0.000000
RightFoot -29.960044 -32.441054 15.287440
RightToeBase 12.244369 -0.000000 -0.000000
216
root 19.911577 35.667481 -24.711957 -214.486962 -10.728961 -170.328517
Spine 30.590753 -5.046827 -2.719170
Head 0.669625 -8.287720 16.864981
LeftShoulder 0.323069 -24.031800 0.403512
LeftArm -11.862824 13.123239 -65.206936
LeftForeArm -8.793947 -0.000000 -2.993769
LeftHand -2.064274 -0.000000 -2.447030
LeftHandThumb1 -26.253704 0.000000 33.147579
RightShoulder -10.314446 -15.319362 16.410751
RightArm 6.000405 -8.048089 67.670964
RightForeArm -16.687904 -0.000000 19.407209
RightHand -4.537100 -0.000000 3.627874
RightHandThumb1 -24.326973 -0.000000 -32.862282
LeftUpLeg 18.597936 5.282235 5.477529
LeftLeg 24.245604 -0.000000 -0.000000
LeftFoot -23.959906 13.428821 -8.643640
LeftToeBase 26.127595 -0.000000 -0.000000
RightUpLeg -34.326274 -1.572644 5.783665
RightLeg 39.985609 -0.000000 -0.000000
RightFoot -29.454736 -32.049830 15.073112
RightToeBase 11.361865 -0.000000 -0.000000
217
root 19.938757 35.726201 -24.718958 -216.059989 -11.290557 -169.650159
Spine 33.166843 -6.244193 -3.096654
Head -0.047592 -7.692811 17.034883
LeftShoulder 1.088836 -24.366559 0.235600
LeftArm -11.024052 13.839740 -64.563035
LeftForeArm -8.523142 0.000000 -3.216155
LeftHand -2.043803 -0.000000 -2.362518
LeftHandThumb1 -26.253704 0.000000 33.147579
RightShoulder -9.911053 -15.253923 16.574423
RightArm 6.494866 -8.409473 67.528324
RightForeArm -16.959671 0.000000 19.391466
RightHand -4.382480 -0.000000 4.088150
RightHandThumb1 -24.326973 -0.000000 -32.862282
LeftUpLeg 19.941278 4.524584 5.983846
LeftLeg 24.117320 -0.000000 -0.000000
LeftFoot -24.007109 13.258907 -8.990107
LeftToeBase 26.733418 -0.000000 -0.000000
RightUpLeg -36.394973 -1.846017 4.885611
RightLeg 38.001051 -0.000000 -0.000000
RightFoot -29.086995 -31.466964 14.818680
RightToeBase 10.645249 -0.000000 -0.000000
218
root 19.966591 35.781145 -24.740278 -217.553093 -11.740522 -168.970460
Spine 35.601714 -7.264297 -3.376579
Head -0.722577 -7.230413 17.106236
LeftShoulder 1.843976 -24.647531 0.009102
LeftArm -10.054215 14.456480 -63.831842
LeftForeArm -8.041477 0.000000 -3.638570
LeftHand -1.786008 -0.000000 -2.412867
LeftHandThumb1 -26.253704 0.000000 33.147579
RightShoulder -9.550864 -15.097684 16.789510
RightArm 6.850010 -8.653214 67.300360
RightForeArm -17.108183 -0.000000 19.491210
RightHand -4.131541 -0.000000 4.359128
RightHandThumb1 -24.326973 -0.000000 -32.862282
LeftUpLeg 21.227490 3.919215 6.581389
LeftLeg 24.006756 -0.000000 -0.000000
LeftFoot -24.163294 12.961104 -9.348255
LeftToeBase 27.510686 -0.000000 -0.000000
RightUpLeg -38.489740 -1.993231 3.964468
RightLeg 35.949157 -0.000000 -0.000000
RightFoot -28.810593 -31.043001 14.411473
RightToeBase 9.858050 -0.000000 -0.000000
219
root 19.990145 35.833253 -24.760624 -219.036740 -12.244281 -168.180013
Spine 38.023776 -8.454567 -3.627695
Head -1.365808 -6.750377 17.095527
LeftShoulder 2.491547 -24.938863 -0.192899
LeftArm -9.288739 15.975295 -63.330738
LeftForeArm -8.520311 -0.000000 -3.657577
LeftHand -1.934813 -0.000000 -2.147087
LeftHandThumb1 -26.253704 0.000000 33.147579
RightShoulder -9.093320 -14.935681 16.963905
RightArm 7.243066 -8.747962 67.015881
RightForeArm -17.400892 -0.000000 19.592492
RightHand -3.955172 0.000000 4.647161
RightHandThumb1 -24.326973 -0.000000 -32.862282
LeftUpLeg 22.373678 3.211584 7.210631
LeftLeg 24.038289 -0.000000 -0.000000
LeftFoot -24.400852 12.637667 -9.664338
LeftToeBase 28.354415 -0.000000 -0.000000
RightUpLeg -40.541824 -2.338004 3.010075
RightLeg 33.814731 -0.000000 -0.000000
RightFoot -28.713041 -30.528055 14.429872
RightToeBase 8.960616 -0.000000 -0.000000
